<?xml version="1.0" encoding="UTF-8"?>
<svg width="300" height="300" shape-rendering="crispEdges" version="1.1" xmlns="http://www.w3.org/2000/svg">
	<desc>svg qrcode</desc>
	<rect width="300" height="300" fill="#FFF"/>
	<path d="M19 19h9v9H19V19M28 19h9v9H28V19M37 19h9v9H37V19M46 19h9v9H46V19M55 19h9v9H55V19M64 19h9v9H64V19M73 19h9v9H73V19M100 19h9v9H100V19M127 19h9v9H127V19M136 19h9v9H136V19M154 19h9v9H154V19M172 19h9v9H172V19M190 19h9v9H190V19M199 19h9v9H199V19M217 19h9v9H217V19M226 19h9v9H226V19M235 19h9v9H235V19M244 19h9v9H244V19M253 19h9v9H253V19M262 19h9v9H262V19M271 19h9v9H271V19M19 28h9v9H19V28M73 28h9v9H73V28M91 28h9v9H91V28M100 28h9v9H100V28M109 28h9v9H109V28M118 28h9v9H118V28M127 28h9v9H127V28M154 28h9v9H154V28M172 28h9v9H172V28M181 28h9v9H181V28M199 28h9v9H199V28M217 28h9v9H217V28M271 28h9v9H271V28M19 37h9v9H19V37M37 37h9v9H37V37M46 37h9v9H46V37M55 37h9v9H55V37M73 37h9v9H73V37M91 37h9v9H91V37M100 37h9v9H100V37M109 37h9v9H109V37M127 37h9v9H127V37M136 37h9v9H136V37M154 37h9v9H154V37M163 37h9v9H163V37M172 37h9v9H172V37M190 37h9v9H190V37M199 37h9v9H199V37M217 37h9v9H217V37M235 37h9v9H235V37M244 37h9v9H244V37M253 37h9v9H253V37M271 37h9v9H271V37M19 46h9v9H19V46M37 46h9v9H37V46M46 46h9v9H46V46M55 46h9v9H55V46M73 46h9v9H73V46M91 46h9v9H91V46M118 46h9v9H118V46M136 46h9v9H136V46M172 46h9v9H172V46M199 46h9v9H199V46M217 46h9v9H217V46M235 46h9v9H235V46M244 46h9v9H244V46M253 46h9v9H253V46M271 46h9v9H271V46M19 55h9v9H19V55M37 55h9v9H37V55M46 55h9v9H46V55M55 55h9v9H55V55M73 55h9v9H73V55M91 55h9v9H91V55M109 55h9v9H109V55M127 55h9v9H127V55M136 55h9v9H136V55M145 55h9v9H145V55M163 55h9v9H163V55M181 55h9v9H181V55M217 55h9v9H217V55M235 55h9v9H235V55M244 55h9v9H244V55M253 55h9v9H253V55M271 55h9v9H271V55M19 64h9v9H19V64M73 64h9v9H73V64M91 64h9v9H91V64M100 64h9v9H100V64M127 64h9v9H127V64M154 64h9v9H154V64M163 64h9v9H163V64M172 64h9v9H172V64M181 64h9v9H181V64M199 64h9v9H199V64M217 64h9v9H217V64M271 64h9v9H271V64M19 73h9v9H19V73M28 73h9v9H28V73M37 73h9v9H37V73M46 73h9v9H46V73M55 73h9v9H55V73M64 73h9v9H64V73M73 73h9v9H73V73M91 73h9v9H91V73M109 73h9v9H109V73M127 73h9v9H127V73M145 73h9v9H145V73M163 73h9v9H163V73M181 73h9v9H181V73M199 73h9v9H199V73M217 73h9v9H217V73M226 73h9v9H226V73M235 73h9v9H235V73M244 73h9v9H244V73M253 73h9v9H253V73M262 73h9v9H262V73M271 73h9v9H271V73M100 82h9v9H100V82M118 82h9v9H118V82M127 82h9v9H127V82M136 82h9v9H136V82M154 82h9v9H154V82M163 82h9v9H163V82M172 82h9v9H172V82M190 82h9v9H190V82M199 82h9v9H199V82M37 91h9v9H37V91M64 91h9v9H64V91M73 91h9v9H73V91M82 91h9v9H82V91M91 91h9v9H91V91M118 91h9v9H118V91M136 91h9v9H136V91M172 91h9v9H172V91M190 91h9v9H190V91M199 91h9v9H199V91M208 91h9v9H208V91M226 91h9v9H226V91M235 91h9v9H235V91M244 91h9v9H244V91M253 91h9v9H253V91M262 91h9v9H262V91M19 100h9v9H19V100M55 100h9v9H55V100M82 100h9v9H82V100M109 100h9v9H109V100M118 100h9v9H118V100M145 100h9v9H145V100M172 100h9v9H172V100M199 100h9v9H199V100M217 100h9v9H217V100M226 100h9v9H226V100M262 100h9v9H262V100M271 100h9v9H271V100M19 109h9v9H19V109M28 109h9v9H28V109M73 109h9v9H73V109M82 109h9v9H82V109M91 109h9v9H91V109M109 109h9v9H109V109M118 109h9v9H118V109M145 109h9v9H145V109M163 109h9v9H163V109M181 109h9v9H181V109M199 109h9v9H199V109M208 109h9v9H208V109M226 109h9v9H226V109M253 109h9v9H253V109M271 109h9v9H271V109M19 118h9v9H19V118M46 118h9v9H46V118M64 118h9v9H64V118M91 118h9v9H91V118M118 118h9v9H118V118M145 118h9v9H145V118M154 118h9v9H154V118M190 118h9v9H190V118M199 118h9v9H199V118M217 118h9v9H217V118M226 118h9v9H226V118M235 118h9v9H235V118M244 118h9v9H244V118M19 127h9v9H19V127M46 127h9v9H46V127M64 127h9v9H64V127M73 127h9v9H73V127M82 127h9v9H82V127M91 127h9v9H91V127M172 127h9v9H172V127M181 127h9v9H181V127M208 127h9v9H208V127M217 127h9v9H217V127M244 127h9v9H244V127M262 127h9v9H262V127M19 136h9v9H19V136M55 136h9v9H55V136M64 136h9v9H64V136M100 136h9v9H100V136M109 136h9v9H109V136M136 136h9v9H136V136M145 136h9v9H145V136M172 136h9v9H172V136M181 136h9v9H181V136M190 136h9v9H190V136M199 136h9v9H199V136M217 136h9v9H217V136M244 136h9v9H244V136M271 136h9v9H271V136M19 145h9v9H19V145M55 145h9v9H55V145M73 145h9v9H73V145M100 145h9v9H100V145M109 145h9v9H109V145M136 145h9v9H136V145M145 145h9v9H145V145M154 145h9v9H154V145M163 145h9v9H163V145M181 145h9v9H181V145M190 145h9v9H190V145M208 145h9v9H208V145M217 145h9v9H217V145M244 145h9v9H244V145M253 145h9v9H253V145M271 145h9v9H271V145M28 154h9v9H28V154M46 154h9v9H46V154M55 154h9v9H55V154M64 154h9v9H64V154M82 154h9v9H82V154M91 154h9v9H91V154M118 154h9v9H118V154M127 154h9v9H127V154M136 154h9v9H136V154M145 154h9v9H145V154M181 154h9v9H181V154M190 154h9v9H190V154M199 154h9v9H199V154M208 154h9v9H208V154M217 154h9v9H217V154M244 154h9v9H244V154M271 154h9v9H271V154M19 163h9v9H19V163M28 163h9v9H28V163M46 163h9v9H46V163M64 163h9v9H64V163M73 163h9v9H73V163M82 163h9v9H82V163M100 163h9v9H100V163M118 163h9v9H118V163M127 163h9v9H127V163M136 163h9v9H136V163M154 163h9v9H154V163M163 163h9v9H163V163M190 163h9v9H190V163M199 163h9v9H199V163M217 163h9v9H217V163M226 163h9v9H226V163M262 163h9v9H262V163M271 163h9v9H271V163M28 172h9v9H28V172M46 172h9v9H46V172M55 172h9v9H55V172M82 172h9v9H82V172M118 172h9v9H118V172M127 172h9v9H127V172M136 172h9v9H136V172M154 172h9v9H154V172M172 172h9v9H172V172M217 172h9v9H217V172M253 172h9v9H253V172M271 172h9v9H271V172M19 181h9v9H19V181M28 181h9v9H28V181M37 181h9v9H37V181M46 181h9v9H46V181M64 181h9v9H64V181M73 181h9v9H73V181M82 181h9v9H82V181M91 181h9v9H91V181M127 181h9v9H127V181M163 181h9v9H163V181M181 181h9v9H181V181M190 181h9v9H190V181M235 181h9v9H235V181M253 181h9v9H253V181M271 181h9v9H271V181M37 190h9v9H37V190M46 190h9v9H46V190M64 190h9v9H64V190M100 190h9v9H100V190M109 190h9v9H109V190M118 190h9v9H118V190M136 190h9v9H136V190M145 190h9v9H145V190M154 190h9v9H154V190M181 190h9v9H181V190M199 190h9v9H199V190M208 190h9v9H208V190M217 190h9v9H217V190M226 190h9v9H226V190M244 190h9v9H244V190M262 190h9v9H262V190M19 199h9v9H19V199M28 199h9v9H28V199M46 199h9v9H46V199M55 199h9v9H55V199M64 199h9v9H64V199M73 199h9v9H73V199M82 199h9v9H82V199M109 199h9v9H109V199M118 199h9v9H118V199M127 199h9v9H127V199M199 199h9v9H199V199M208 199h9v9H208V199M217 199h9v9H217V199M226 199h9v9H226V199M235 199h9v9H235V199M244 199h9v9H244V199M271 199h9v9H271V199M91 208h9v9H91V208M109 208h9v9H109V208M118 208h9v9H118V208M145 208h9v9H145V208M154 208h9v9H154V208M172 208h9v9H172V208M190 208h9v9H190V208M199 208h9v9H199V208M235 208h9v9H235V208M244 208h9v9H244V208M271 208h9v9H271V208M19 217h9v9H19V217M28 217h9v9H28V217M37 217h9v9H37V217M46 217h9v9H46V217M55 217h9v9H55V217M64 217h9v9H64V217M73 217h9v9H73V217M91 217h9v9H91V217M100 217h9v9H100V217M109 217h9v9H109V217M154 217h9v9H154V217M163 217h9v9H163V217M172 217h9v9H172V217M181 217h9v9H181V217M199 217h9v9H199V217M217 217h9v9H217V217M235 217h9v9H235V217M244 217h9v9H244V217M253 217h9v9H253V217M271 217h9v9H271V217M19 226h9v9H19V226M73 226h9v9H73V226M91 226h9v9H91V226M100 226h9v9H100V226M127 226h9v9H127V226M136 226h9v9H136V226M190 226h9v9H190V226M199 226h9v9H199V226M235 226h9v9H235V226M244 226h9v9H244V226M271 226h9v9H271V226M19 235h9v9H19V235M37 235h9v9H37V235M46 235h9v9H46V235M55 235h9v9H55V235M73 235h9v9H73V235M109 235h9v9H109V235M118 235h9v9H118V235M136 235h9v9H136V235M163 235h9v9H163V235M172 235h9v9H172V235M181 235h9v9H181V235M190 235h9v9H190V235M199 235h9v9H199V235M208 235h9v9H208V235M217 235h9v9H217V235M226 235h9v9H226V235M235 235h9v9H235V235M19 244h9v9H19V244M37 244h9v9H37V244M46 244h9v9H46V244M55 244h9v9H55V244M73 244h9v9H73V244M100 244h9v9H100V244M109 244h9v9H109V244M118 244h9v9H118V244M127 244h9v9H127V244M136 244h9v9H136V244M145 244h9v9H145V244M172 244h9v9H172V244M181 244h9v9H181V244M190 244h9v9H190V244M199 244h9v9H199V244M226 244h9v9H226V244M235 244h9v9H235V244M244 244h9v9H244V244M262 244h9v9H262V244M19 253h9v9H19V253M37 253h9v9H37V253M46 253h9v9H46V253M55 253h9v9H55V253M73 253h9v9H73V253M91 253h9v9H91V253M100 253h9v9H100V253M109 253h9v9H109V253M118 253h9v9H118V253M127 253h9v9H127V253M145 253h9v9H145V253M154 253h9v9H154V253M163 253h9v9H163V253M208 253h9v9H208V253M235 253h9v9H235V253M244 253h9v9H244V253M253 253h9v9H253V253M262 253h9v9H262V253M271 253h9v9H271V253M19 262h9v9H19V262M73 262h9v9H73V262M118 262h9v9H118V262M145 262h9v9H145V262M154 262h9v9H154V262M181 262h9v9H181V262M199 262h9v9H199V262M208 262h9v9H208V262M217 262h9v9H217V262M244 262h9v9H244V262M19 271h9v9H19V271M28 271h9v9H28V271M37 271h9v9H37V271M46 271h9v9H46V271M55 271h9v9H55V271M64 271h9v9H64V271M73 271h9v9H73V271M109 271h9v9H109V271M118 271h9v9H118V271M127 271h9v9H127V271M145 271h9v9H145V271M154 271h9v9H154V271M199 271h9v9H199V271M226 271h9v9H226V271M235 271h9v9H235V271M271 271h9v9H271V271"/>
</svg>